<?xml version="1.0" standalone="no"?>
<!DOCTYPE svg PUBLIC "-//W3C//DTD SVG 1.1//EN" "http://www.w3.org/Graphics/SVG/1.1/DTD/svg11.dtd" >
<svg xmlns="http://www.w3.org/2000/svg" xmlns:xlink="http://www.w3.org/1999/xlink" version="1.1">
<metadata>
Created by FontForge 20180930 at Mon Oct  8 06:02:17 2018
 By Linux User,,,
(c)  2013 Bahij Virtual Academy. All rights reserved.
</metadata>
<defs>
<font id="BahijTheSansArabic-ExtraBold" horiz-adv-x="1126" >
  <font-face 
    font-family="Bahij TheSansArabic ExtraBold"
    font-weight="500"
    font-stretch="normal"
    units-per-em="2048"
    panose-1="2 4 5 3 5 2 1 2 2 3"
    ascent="1638"
    descent="-410"
    x-height="1018"
    cap-height="1382"
    bbox="-133 -532 2391 1951"
    underline-thickness="50"
    underline-position="-100"
    unicode-range="U+0020-FEF3"
  />
    <missing-glyph />
    <glyph glyph-name="uniFEB0" unicode="&#x632;" horiz-adv-x="845" arabic-form="final" 
d="M20 -504l23 256q62 -16 139 -16q94 0 138 50q48 57 48 194v983h324v-709h186v-254h-186v-8q0 -508 -527 -508q-77 0 -145 12zM417 1149q-47 47 -47 115q0 66 47 113q47 46 113 46q68 0 115 -46t47 -113q0 -68 -47 -115t-115 -47q-66 0 -113 47z" />
    <glyph glyph-name="uniFED3" unicode="&#x641;" horiz-adv-x="1253" arabic-form="initial" 
d="M0 0v254h88q70 0 111 -16q-90 77 -90 258q0 207 135 344q150 151 409 151q244 0 367 -133q113 -123 113 -344v-514h-1133zM817 479q0 258 -184 258q-96 0 -152 -68q-53 -65 -53 -167q0 -248 264 -248h125v225zM512 1159q-47 47 -47 115q0 66 47 113t113 47q67 0 114 -46
q47 -47 47 -114q0 -68 -47 -115t-114 -47t-113 47z" />
    <glyph glyph-name="uniFEF3" unicode="&#x64a;" horiz-adv-x="827" arabic-form="initial" 
d="M0 254h369v709h323v-963h-692v254zM648 -419q-45 -46 -109 -46q-66 0 -110 46q-44 45 -44 112q0 65 44 111t110 46q64 0 109 -46q44 -46 44 -111q0 -66 -44 -112zM283 -419q-44 -46 -109 -46q-64 0 -109 46t-45 112q0 65 45 111t109 46t109 -46t45 -111q0 -66 -45 -112z
" />
    <glyph glyph-name="uniFB61" unicode="&#x67a;" horiz-adv-x="755" arabic-form="medial" 
d="M0 254h276v709h326v-709h184v-254h-786v254zM554 1733q46 -45 46 -109q0 -66 -46 -110q-45 -44 -112 -44q-65 0 -111 44t-46 110q0 64 46 109q46 44 111 44q66 0 112 -44zM554 1368q46 -44 46 -109q0 -64 -46 -109t-112 -45q-65 0 -111 45t-46 109t46 109t111 45
q66 0 112 -45z" />
    <glyph glyph-name="uni06B6.init" unicode="&#x6b6;" horiz-adv-x="718" 
d="M0 254h233v1190h326v-1444h-559v254zM293 1612q-44 46 -44 112t44 112q45 46 110 46q64 0 109 -46q45 -47 45 -112q0 -66 -45 -112q-45 -47 -109 -47q-66 0 -110 47z" />
    <glyph glyph-name="space" unicode=" " horiz-adv-x="400" 
 />
    <glyph glyph-name="uni0641" unicode="&#x641;" horiz-adv-x="1902" 
d="M1678 143q-152 -143 -385 -143h-434q-776 0 -776 614q0 155 47 308l346 55q-65 -148 -65 -330q0 -393 422 -393h36q-63 76 -63 221q0 229 151 373q151 143 386 143q234 0 360 -120q129 -123 129 -357q0 -227 -154 -371zM1322 737q-80 0 -132 -55q-60 -63 -60 -178
q0 -250 186 -250q88 0 139 62q53 65 53 180q0 241 -186 241zM1207 1149q-47 47 -47 115q0 66 47 113q47 46 113 46q68 0 115 -46t47 -113q0 -68 -47 -115t-115 -47q-66 0 -113 47z" />
    <glyph glyph-name="uni06B6" unicode="&#x6b6;" horiz-adv-x="1349" 
d="M880 1444h323v-1264q0 -651 -579 -651q-543 0 -543 590q0 173 47 352l336 59q-59 -196 -59 -380q0 -367 243 -367q232 0 232 373v1288zM933 1612q-44 46 -44 112t44 112q45 46 110 46q64 0 109 -46q45 -47 45 -112q0 -66 -45 -112q-45 -47 -109 -47q-66 0 -110 47z" />
    <glyph glyph-name="uni0765.init" horiz-adv-x="1253" 
d="M0 0v254h88q70 0 111 -16q-90 77 -90 258q0 207 135 344q150 151 409 151q244 0 367 -133q113 -123 113 -344v-514h-1133zM817 479q0 258 -184 258q-96 0 -152 -68q-53 -65 -53 -167q0 -248 264 -248h125v225zM527 1142q-44 46 -44 112t44 112q45 46 110 46q64 0 109 -46
q45 -47 45 -112q0 -66 -45 -112q-45 -47 -109 -47q-66 0 -110 47z" />
    <glyph glyph-name="uni0765.medi" horiz-adv-x="1335" 
d="M775 0q-318 0 -448 137q-72 -137 -336 -137h-31v254q231 0 231 242q0 207 136 344q149 151 409 151q244 0 367 -133q112 -123 112 -344v-260h152v-254h-592zM900 479q0 258 -184 258q-96 0 -152 -68q-53 -65 -53 -167q0 -248 264 -248h125v225zM637 1142q-44 46 -44 112
t44 112q45 46 110 46q64 0 109 -46q45 -47 45 -112q0 -66 -45 -112q-45 -47 -109 -47q-66 0 -110 47z" />
    <glyph glyph-name="uni0765.fina" horiz-adv-x="1658" 
d="M1091 0q-490 0 -546 375h-35q-76 0 -96 -50q-21 -51 2 -188l106 -669h-313l-103 649q-37 237 56 368q103 144 354 144h45q44 163 172 259q139 103 350 103q244 0 367 -133q113 -123 113 -344v-260h153v-254h-625zM1247 479q0 258 -184 258q-94 0 -150 -68
q-53 -65 -53 -167q0 -248 262 -248h125v225zM1007 1142q-44 46 -44 112t44 112q45 46 110 46q64 0 109 -46q45 -47 45 -112q0 -66 -45 -112q-45 -47 -109 -47q-66 0 -110 47z" />
    <glyph glyph-name="glyph476" horiz-adv-x="2359" 
d="M1924 479q0 258 -184 258q-96 0 -152 -68q-53 -65 -53 -167q0 -248 264 -248h125v225zM420 647q0 -208 107 -299q111 -94 374 -94h83q231 0 231 242q0 207 136 344q149 151 409 151q244 0 367 -133q112 -123 112 -344v-260h152v-254h-592q-318 0 -448 137
q-70 -134 -324 -137h-159q-753 0 -775 579l328 87zM1637 1142q-44 46 -44 112t44 112q45 46 110 46q64 0 109 -46q45 -47 45 -112q0 -66 -45 -112q-45 -47 -109 -47q-66 0 -110 47z" />
    <glyph glyph-name="uni0766" unicode="&#x766;" horiz-adv-x="1658" 
d="M1091 0q-490 0 -546 375h-35q-76 0 -96 -50q-21 -51 2 -188l106 -669h-313l-103 649q-37 237 56 368q103 144 354 144h45q44 163 172 259q139 103 350 103q244 0 367 -133q113 -123 113 -344v-514h-472zM1247 479q0 258 -184 258q-94 0 -150 -68q-53 -65 -53 -167
q0 -248 262 -248h125v225zM947 -378q-44 46 -44 112t44 112q45 46 110 46q64 0 109 -46q45 -47 45 -112q0 -66 -45 -112q-45 -47 -109 -47q-66 0 -110 47z" />
    <glyph glyph-name="glyph478" horiz-adv-x="2359" 
d="M1924 479q0 258 -184 258q-96 0 -152 -68q-53 -65 -53 -167q0 -248 264 -248h125v225zM420 647q0 -208 107 -299q111 -94 374 -94h83q231 0 231 242q0 207 136 344q149 151 409 151q244 0 367 -133q112 -123 112 -344v-514h-440q-318 0 -448 137q-70 -134 -324 -137h-159
q-753 0 -775 579l327 79v-11zM1627 -378q-44 46 -44 112t44 112q45 46 110 46q64 0 109 -46q45 -47 45 -112q0 -66 -45 -112q-45 -47 -109 -47q-66 0 -110 47z" />
    <glyph glyph-name="uni06B5.init_uniFE82.rlig" horiz-adv-x="1243" 
d="M648 389h-330l-272 1028l324 45zM130 0v254h631v1190h323v-1444h-954zM-40 1694l216 174q68 -80 174 -80t192 82v-228q-83 -77 -204 -77q-98 0 -166 65l-116 -88zM920 1546l-313 270l110 135l205 -154l205 154l109 -135z" />
    <glyph glyph-name="uni06B6.medi_uni0672.fina.rlig" horiz-adv-x="1284" 
d="M169 0v254h631v1143h324v-1143h192v-254h-1147zM687 389h-329l-191 680h332zM473 1368q-11 71 -61 71q-95 0 -136 -152h348v-141h-585v141h80q89 289 309 289q91 0 143 -62q44 -55 52 -146h-150zM837 1613q-47 47 -47 115q0 66 47 113q47 46 113 46q68 0 115 -46t47 -113
q0 -68 -47 -115t-115 -47q-66 0 -113 47z" />
    <glyph glyph-name="comma" unicode="," horiz-adv-x="567" 
d="M420 289q55 -65 56 -167q2 -252 -290 -501l-127 113q105 114 122 189q16 71 -42 138q-70 81 -26 184q45 107 169 107q84 0 138 -63z" />
    <glyph glyph-name="semicolon" unicode=";" horiz-adv-x="626" 
d="M469 598q-57 -57 -136 -57q-80 0 -137 57t-57 137q0 79 57 136q58 57 137 57t136 -57t57 -136t-57 -137zM470 289q55 -65 56 -167q2 -252 -291 -501l-127 113q106 113 123 189q16 70 -41 138q-71 81 -27 184q45 107 168 107q85 0 139 -63z" />
    <glyph glyph-name="colon" unicode=":" horiz-adv-x="626" 
d="M469 598q-57 -57 -135 -57q-80 0 -138 57q-57 57 -57 137q0 79 57 136q58 57 138 57q78 0 135 -57t57 -136t-57 -137zM469 32q-57 -57 -135 -57q-81 0 -138 57q-57 56 -57 136t57 137q58 57 138 57q78 0 135 -57t57 -137t-57 -136z" />
    <glyph glyph-name="period" unicode="." horiz-adv-x="567" 
d="M420 32q-57 -57 -137 -57q-79 0 -136 57q-57 56 -57 136t57 137t136 57t137 -57q57 -57 57 -137t-57 -136z" />
    <glyph glyph-name="ellipsis" unicode="&#x2026;" horiz-adv-x="1560" 
d="M1410 29q-54 -54 -130 -54q-77 0 -131 54q-53 54 -53 131q0 75 53 129q54 53 131 53q75 0 130 -53q54 -54 54 -129q0 -77 -54 -131zM907 29q-54 -54 -131 -54q-76 0 -130 54t-54 131q0 75 54 129q55 53 130 53q77 0 131 -53q53 -54 53 -129q0 -77 -53 -131zM404 29
q-54 -54 -130 -54t-130 54t-54 131q0 75 54 129q54 53 130 53t130 -53q55 -54 55 -129q0 -77 -55 -131z" />
    <glyph glyph-name="exclam" unicode="!" horiz-adv-x="661" 
d="M485 412h-273l-49 1044h367zM475 27q-54 -52 -132 -52t-131 52q-53 51 -53 125q0 75 53 126q53 52 131 52q79 0 132 -52q53 -51 53 -126q0 -74 -53 -125z" />
    <glyph glyph-name="exclamdown" unicode="&#xa1;" horiz-adv-x="661" 
d="M447 740q-53 -52 -132 -52q-78 0 -131 52q-53 51 -53 126q0 74 53 125t131 51t132 -51q53 -51 53 -125q0 -75 -53 -126zM131 -438l45 1044h270l52 -1044h-367z" />
    <glyph glyph-name="question" unicode="?" horiz-adv-x="931" 
d="M665 708q-85 -75 -110 -123q-40 -75 -11 -173h-305q-76 217 87 372q20 19 65 57q41 34 59 53q61 60 61 118q0 172 -397 182l39 283q349 -6 535 -138q163 -116 163 -295q0 -169 -186 -336zM528 27q-53 -52 -131 -52t-132 52q-53 51 -53 125q0 75 53 126q53 52 132 52
q78 0 131 -52q53 -51 53 -126q0 -74 -53 -125z" />
    <glyph glyph-name="questiondown" unicode="&#xbf;" horiz-adv-x="931" 
d="M665 740q-53 -52 -131 -52q-79 0 -132 52q-53 51 -53 126q0 74 53 125q54 51 132 51t131 -51t53 -125q0 -75 -53 -126zM777 -459q-349 6 -536 138q-164 116 -164 294q0 170 188 337q84 75 110 122q41 76 11 174h305q76 -217 -87 -372q-20 -19 -64 -57q-41 -34 -60 -53
q-61 -60 -61 -118q0 -172 395 -182z" />
    <glyph glyph-name="quoteleft" unicode="&#x2018;" horiz-adv-x="577" 
d="M509 1442q-105 -113 -122 -189q-16 -71 42 -139q70 -81 26 -184q-45 -107 -169 -107q-84 0 -138 64q-55 64 -56 167q-2 252 290 500z" />
    <glyph glyph-name="quoteright" unicode="&#x2019;" horiz-adv-x="577" 
d="M429 1472q55 -64 56 -166q2 -252 -291 -501l-127 113q106 112 123 188q16 71 -41 139q-71 80 -27 184q45 107 168 107q85 0 139 -64z" />
    <glyph glyph-name="quotedblleft" unicode="&#x201c;" horiz-adv-x="1062" 
d="M997 1442q-107 -113 -124 -189q-16 -71 42 -139q71 -80 27 -184q-46 -107 -168 -107q-85 0 -139 64q-55 64 -56 167q-2 252 291 500zM509 1442q-105 -113 -122 -189q-16 -71 42 -139q70 -81 26 -184q-45 -107 -169 -107q-84 0 -138 64q-55 64 -56 167q-2 252 290 500z
" />
    <glyph glyph-name="quotedblright" unicode="&#x201d;" horiz-adv-x="1062" 
d="M915 1472q55 -64 55 -166q2 -252 -291 -501l-127 113q107 112 124 188q17 71 -42 139q-70 81 -26 184q45 107 170 107q83 0 137 -64zM429 1472q55 -64 56 -166q2 -252 -291 -501l-127 113q106 112 123 188q16 71 -41 139q-71 80 -27 184q45 107 168 107q85 0 139 -64z
" />
    <glyph glyph-name="quotesinglbase" unicode="&#x201a;" horiz-adv-x="577" 
d="M429 289q55 -65 56 -167q2 -252 -291 -501l-127 113q106 113 123 189q16 70 -41 138q-71 81 -27 184q45 107 168 107q85 0 139 -63z" />
    <glyph glyph-name="quotedblbase" unicode="&#x201e;" horiz-adv-x="1062" 
d="M915 289q55 -65 55 -167q2 -252 -291 -501l-127 113q107 114 124 189q16 71 -42 138q-70 81 -26 184q45 107 170 107q83 0 137 -63zM429 289q55 -65 56 -167q2 -252 -291 -501l-127 113q106 113 123 189q16 70 -41 138q-71 81 -27 184q45 107 168 107q85 0 139 -63z" />
    <glyph glyph-name="guilsinglleft" unicode="&#x2039;" horiz-adv-x="638" 
d="M290 186l-225 412l231 416l240 -109l-174 -307l178 -301z" />
    <glyph glyph-name="guilsinglright" unicode="&#x203a;" horiz-adv-x="638" 
d="M342 186l-242 109l174 307l-178 301l252 111l225 -412z" />
    <glyph glyph-name="guillemotleft" unicode="&#xab;" 
d="M784 193l-236 405l242 408l235 -107l-180 -301l185 -295zM282 180l-213 418l217 420l246 -105l-166 -315l170 -311z" />
    <glyph glyph-name="guillemotright" unicode="&#xbb;" 
d="M839 180l-245 105l166 317l-168 309l254 107l213 -416zM338 193l-238 108l180 301l-184 295l248 109l235 -404z" />
    <glyph glyph-name="parenleft" unicode="(" horiz-adv-x="630" 
d="M386 -446q-305 479 -305 1030q0 557 307 1036l232 -104q-230 -415 -230 -922q0 -512 236 -936z" />
    <glyph glyph-name="parenright" unicode=")" horiz-adv-x="630" 
d="M241 -446l-231 102q231 415 231 922q0 510 -233 935l240 107q301 -480 301 -1032q0 -559 -308 -1034z" />
    <glyph glyph-name="braceleft" unicode="{" horiz-adv-x="770" 
d="M657 -426q-217 0 -312 115t-95 379v221q0 126 -53 180q-44 46 -144 51v234q101 3 144 44q53 50 53 177v135q0 257 94 372q97 117 313 117h47v-249q-97 0 -129 -44q-35 -47 -35 -194v-135q0 -310 -188 -338v-4q188 -29 188 -348v-219q0 -149 35 -197q32 -45 129 -45v-252
h-47z" />
    <glyph glyph-name="braceright" unicode="}" horiz-adv-x="765" 
d="M720 520q-100 -5 -145 -51q-53 -54 -53 -180v-221q0 -264 -96 -379q-94 -115 -310 -115h-49v252q99 0 130 45q34 47 34 197v219q0 319 188 348v4q-188 25 -188 336v137q0 148 -34 194q-31 44 -130 44v249h49q215 0 311 -117q95 -115 95 -372v-133q0 -128 52 -179
q44 -41 146 -44v-234z" />
    <glyph glyph-name="bracketleft" unicode="[" horiz-adv-x="677" 
d="M126 -426v2025h481v-249h-188v-1524h188v-252h-481z" />
    <glyph glyph-name="bracketright" unicode="]" horiz-adv-x="677" 
d="M71 -426v252h186v1524h-186v249h481v-2025h-481z" />
    <glyph glyph-name="bar" unicode="|" horiz-adv-x="593" 
d="M167 -485v2048h248v-2048h-248z" />
    <glyph glyph-name="slash" unicode="/" horiz-adv-x="983" 
d="M271 -330h-311l719 1880h309z" />
    <glyph glyph-name="hyphen" unicode="-" horiz-adv-x="690" 
d="M86 430v250h516v-250h-516z" />
    <glyph glyph-name="endash" unicode="&#x2013;" 
d="M0 473v275h1126v-275h-1126z" />
    <glyph glyph-name="emdash" unicode="&#x2014;" horiz-adv-x="2048" 
d="M217 473v275h1614v-275h-1614z" />
    <glyph glyph-name="bullet" unicode="&#x2022;" horiz-adv-x="868" 
d="M674 368q-100 -100 -240 -100q-141 0 -241 100q-99 100 -99 240t99 240q100 100 241 100q140 0 240 -100t100 -240t-100 -240z" />
    <glyph glyph-name="periodcentered" unicode="&#xb7;" horiz-adv-x="598" 
d="M436 473q-58 -57 -137 -57q-80 0 -138 57q-57 57 -57 137t57 138q58 57 138 57q79 0 137 -57q57 -58 57 -138t-57 -137z" />
    <glyph glyph-name="asterisk" unicode="*" horiz-adv-x="800" 
d="M635 895l-166 141l39 -215h-219l38 215l-168 -139l-106 186l207 74l-207 76l109 186l167 -141l-40 217h219l-39 -217l168 141l108 -186l-207 -76l207 -74z" />
    <glyph glyph-name="dagger" unicode="&#x2020;" horiz-adv-x="948" 
d="M603 1061l50 -168l-54 -528h-250l-55 528l49 168h-268v239h268l-49 279h359l-50 -279h269v-239h-269z" />
    <glyph glyph-name="daggerdbl" unicode="&#x2021;" horiz-adv-x="948" 
d="M605 575l50 -239h-363l49 239h-266v240h266l-47 143l47 142h-266v239h266l-47 240h359l-48 -240h267v-239h-267l48 -142l-48 -143h267v-240h-267z" />
    <glyph glyph-name="section" unicode="&#xa7;" horiz-adv-x="1097" 
d="M815 221q75 -94 75 -215q0 -145 -114 -240q-136 -112 -398 -112q-87 0 -176 20l21 260q70 -22 157 -22q173 0 173 102q0 54 -71 117l-71 57q-63 47 -83 63q-224 180 -224 398q0 191 156 299q-76 92 -76 213q0 154 106 246q123 106 365 106q104 0 176 -14l-14 -260
q-68 21 -148 21q-149 0 -149 -93q0 -49 70 -113q23 -21 72 -60q60 -47 83 -66q225 -190 225 -406q0 -188 -155 -301zM619 633q-26 26 -81 74q-75 64 -102 90q-51 -42 -51 -109q0 -109 256 -315q51 41 51 106q0 78 -73 154z" />
    <glyph glyph-name="paragraph" unicode="&#xb6;" horiz-adv-x="1243" 
d="M1026 1130v-1327h-398v252h138v1327h387v-252h-127zM604 449q-254 0 -388 139q-120 125 -120 327q0 215 143 343q139 124 365 124v-933z" />
    <glyph glyph-name="A" unicode="A" horiz-adv-x="1296" 
d="M957 0l-84 256h-482l-82 -256h-317l459 1382h379l477 -1382h-350zM684 848q-28 83 -53 192h-4q-31 -132 -49 -194l-111 -338h328z" />
    <glyph glyph-name="B" unicode="B" horiz-adv-x="1200" 
d="M996 128q-152 -132 -436 -132l-177 2q-147 2 -261 2v1380q212 11 496 11q475 0 475 -349q0 -216 -189 -299v-6q100 -26 164 -111t64 -194q0 -187 -136 -304zM564 1139q-53 0 -123 -4v-308q27 -2 95 -2q219 0 219 168q0 146 -191 146zM548 590q-82 0 -107 -2v-330
q80 -6 125 -6q106 0 166 48q58 46 58 126q0 164 -242 164z" />
    <glyph glyph-name="C" unicode="C" horiz-adv-x="1136" 
d="M1058 41q-158 -59 -344 -59q-349 0 -515 212q-132 169 -132 447q0 344 179 544q186 208 521 208q160 0 283 -39l-41 -291q-117 43 -248 43q-165 0 -255 -112q-89 -109 -89 -300q0 -422 361 -422q133 0 235 52z" />
    <glyph glyph-name="D" unicode="D" horiz-adv-x="1351" 
d="M1077 177q-200 -187 -545 -187q-156 0 -410 12v1376q217 13 471 13q692 0 692 -672q0 -348 -208 -542zM865 1006q-88 116 -292 116q-97 0 -132 -4v-846q54 -8 119 -8q173 0 274 105q109 113 109 325q0 210 -78 312z" />
    <glyph glyph-name="E" unicode="E" horiz-adv-x="997" 
d="M122 0v1382h778v-268h-459v-274h435v-260h-435v-306h459v-274h-778z" />
    <glyph glyph-name="F" unicode="F" horiz-adv-x="948" 
d="M441 1110v-295h418v-262h-418v-553h-319v1382h762v-272h-443z" />
    <glyph glyph-name="G" unicode="G" horiz-adv-x="1372" 
d="M1253 68q-220 -91 -486 -91q-343 0 -526 181q-176 174 -176 485q0 351 202 553q208 207 580 207q213 0 400 -57l-64 -291q-164 63 -350 63q-214 0 -324 -126q-100 -114 -100 -310t98 -304q102 -112 295 -112q76 0 131 19v452h320v-669z" />
    <glyph glyph-name="H" unicode="H" horiz-adv-x="1390" 
d="M947 0v575h-506v-575h-319v1382h319v-530h506v530h320v-1382h-320z" />
    <glyph glyph-name="I" unicode="I" horiz-adv-x="565" 
d="M122 0v1382h319v-1382h-319z" />
    <glyph glyph-name="J" unicode="J" horiz-adv-x="694" 
d="M573 403q0 -423 -391 -423q-100 0 -182 16v270q52 -18 117 -18q139 0 139 166v968h317v-979z" />
    <glyph glyph-name="K" unicode="K" horiz-adv-x="1239" 
d="M816 0l-375 649v-649h-319v1382h319v-610l379 610h387l-456 -665l479 -717h-414z" />
    <glyph glyph-name="L" unicode="L" horiz-adv-x="880" 
d="M122 0v1382h319v-1099h418v-283h-737z" />
    <glyph glyph-name="M" unicode="M" horiz-adv-x="1794" 
d="M1422 0l-88 582q-23 139 -43 344h-4q-39 -199 -82 -355l-176 -571h-297l-168 528q-66 220 -92 398h-4q-17 -222 -39 -373l-67 -553h-322l221 1382h367l192 -612q37 -113 76 -301h4q36 174 78 301l195 612h360l221 -1382h-332z" />
    <glyph glyph-name="N" unicode="N" horiz-adv-x="1419" 
d="M878 0l-357 680q-74 151 -108 266q14 -239 14 -579v-367h-305v1382h420l344 -657q67 -128 119 -276q-15 207 -15 589v344h306v-1382h-418z" />
    <glyph glyph-name="O" unicode="O" horiz-adv-x="1437" 
d="M1178 173q-193 -200 -484 -200q-315 0 -479 187q-158 179 -158 508q0 334 202 542q193 199 484 199q315 0 479 -187q158 -179 158 -507q0 -334 -202 -542zM721 1118q-146 0 -234 -108q-92 -113 -92 -310q0 -434 321 -434q146 0 234 108q92 112 92 308q0 436 -321 436z
" />
    <glyph glyph-name="P" unicode="P" horiz-adv-x="1116" 
d="M939 592q-153 -148 -422 -148q-43 0 -76 2v-446h-319v1382q197 11 414 11q544 0 544 -443q0 -220 -141 -358zM521 1130q-39 0 -80 -2v-413q39 -8 93 -8q217 0 217 215q0 208 -230 208z" />
    <glyph glyph-name="Q" unicode="Q" horiz-adv-x="1437" 
d="M1433 -135q-202 -31 -375 33q-200 75 -301 75h-63q-315 0 -479 187q-158 179 -158 508q0 334 202 542q193 199 484 199q315 0 479 -187q158 -179 158 -507q0 -408 -252 -551q29 -1 136 -24q84 -18 169 -5v-270zM721 1118q-146 0 -234 -108q-92 -113 -92 -310
q0 -434 321 -434q146 0 234 108q92 112 92 308q0 436 -321 436z" />
    <glyph glyph-name="R" unicode="R" horiz-adv-x="1177" 
d="M781 0l-321 541h-19v-541h-319v1382q146 11 432 11q522 0 522 -410q0 -139 -83 -244t-216 -139q74 -100 107 -156l287 -444h-390zM530 1130q-52 0 -89 -4v-354q33 -4 80 -4q102 0 162 50q60 51 60 138q0 174 -213 174z" />
    <glyph glyph-name="S" unicode="S" horiz-adv-x="1028" 
d="M820 108q-155 -133 -397 -133q-185 0 -329 37l30 303q151 -61 308 -61q188 0 188 143q0 76 -86 125l-191 79q-276 114 -276 374q0 198 143 313q146 119 404 119q136 0 252 -27l-29 -278q-117 41 -238 41q-190 0 -190 -131q0 -70 88 -119l194 -84q281 -124 281 -371
q0 -200 -152 -330z" />
    <glyph glyph-name="T" unicode="T" horiz-adv-x="1038" 
d="M677 1110v-1110h-317v1110h-332v272h981v-272h-332z" />
    <glyph glyph-name="U" unicode="U" horiz-adv-x="1378" 
d="M1255 543q0 -570 -586 -570q-547 0 -547 514v895h319v-876q0 -131 51 -193q58 -71 197 -71q136 0 193 63q57 65 57 219v858h316v-839z" />
    <glyph glyph-name="V" unicode="V" horiz-adv-x="1300" 
d="M838 0h-373l-469 1382h344l244 -755q44 -137 71 -258h5q27 118 77 276l242 737h326z" />
    <glyph glyph-name="W" unicode="W" horiz-adv-x="1947" 
d="M1564 0h-387l-164 651q-34 158 -51 316h-2q-14 -141 -52 -305l-165 -662h-365l-342 1382h338l162 -673q33 -146 45 -289h2q27 183 53 280l180 682h330l180 -669q34 -129 56 -285h2q17 129 51 291l155 663h320z" />
    <glyph glyph-name="X" unicode="X" horiz-adv-x="1327" 
d="M913 0l-262 467l-262 -467h-377l432 705l-407 677h368l252 -448l248 448h362l-399 -680l447 -702h-402z" />
    <glyph glyph-name="Y" unicode="Y" horiz-adv-x="1183" 
d="M748 483v-483h-320v481l-432 901h348l158 -352q55 -123 88 -221h4q27 79 107 250l149 323h336z" />
    <glyph glyph-name="Z" unicode="Z" horiz-adv-x="1097" 
d="M90 0v250l444 743l74 107q-74 -4 -217 -4h-287v286h895v-260l-469 -753q-10 -14 -26 -38l-27 -40q27 4 268 4h263v-295h-918z" />
    <glyph glyph-name="Agrave" unicode="&#xc0;" horiz-adv-x="1296" 
d="M957 0l-84 256h-482l-82 -256h-317l459 1382h379l477 -1382h-350zM684 848q-28 83 -53 192h-4q-31 -132 -49 -194l-111 -338h328zM789 1454l-478 105l66 217l459 -154z" />
    <glyph glyph-name="Aacute" unicode="&#xc1;" horiz-adv-x="1296" 
d="M957 0l-84 256h-482l-82 -256h-317l459 1382h379l477 -1382h-350zM684 848q-28 83 -53 192h-4q-31 -132 -49 -194l-111 -338h328zM486 1454l-48 168l459 154l66 -217z" />
    <glyph glyph-name="Acircumflex" unicode="&#xc2;" horiz-adv-x="1296" 
d="M957 0l-84 256h-482l-82 -256h-317l459 1382h379l477 -1382h-350zM684 848q-28 83 -53 192h-4q-31 -132 -49 -194l-111 -338h328zM920 1454l-289 107l-274 -107l-66 152l348 176l350 -168z" />
    <glyph glyph-name="Atilde" unicode="&#xc3;" horiz-adv-x="1296" 
d="M957 0l-84 256h-482l-82 -256h-317l459 1382h379l477 -1382h-350zM684 848q-28 83 -53 192h-4q-31 -132 -49 -194l-111 -338h328zM1041 1661q-105 -180 -275 -180q-80 0 -153 45t-103 45q-66 0 -112 -84l-152 102q101 180 274 180q79 0 153 -45t103 -45q64 0 111 84z" />
    <glyph glyph-name="Adieresis" unicode="&#xc4;" horiz-adv-x="1296" 
d="M957 0l-84 256h-482l-82 -256h-317l459 1382h379l477 -1382h-350zM684 848q-28 83 -53 192h-4q-31 -132 -49 -194l-111 -338h328zM972 1504q-45 -46 -110 -46q-64 0 -110 46q-45 45 -45 110q0 64 45 109q46 44 110 44q65 0 110 -44q46 -45 46 -109q0 -65 -46 -110z
M528 1504q-46 -46 -110 -46q-65 0 -110 46q-46 45 -46 110q0 64 46 109q45 44 110 44t110 -44q46 -45 46 -109q0 -65 -46 -110z" />
    <glyph glyph-name="Aring" unicode="&#xc5;" horiz-adv-x="1296" 
d="M957 0l-84 256h-482l-82 -256h-317l459 1382h379l477 -1382h-350zM684 848q-28 83 -53 192h-4q-31 -132 -49 -194l-111 -338h328zM827 1525q-74 -69 -180 -69q-107 0 -180 67q-74 68 -74 173q0 103 75 173q74 68 179 68q107 0 180 -67q74 -69 74 -172t-74 -173zM714 1762
q-28 28 -67 28q-38 0 -65 -28t-27 -66t27 -66t65 -28t67 28q28 29 28 66q0 38 -28 66z" />
    <glyph glyph-name="AE" unicode="&#xc6;" horiz-adv-x="1613" 
d="M748 0v287h-368l-127 -287h-324l651 1382h926v-268h-453v-274h437v-260h-437v-306h465v-274h-770zM748 1114h-4q-62 -163 -123 -293l-137 -286h264v579z" />
    <glyph glyph-name="Ccedilla" unicode="&#xc7;" horiz-adv-x="1136" 
d="M1058 41q-158 -59 -344 -59q-349 0 -515 212q-132 169 -132 447q0 344 179 544q186 208 521 208q160 0 283 -39l-41 -291q-117 43 -248 43q-165 0 -255 -112q-89 -109 -89 -300q0 -422 361 -422q133 0 235 52zM747 -80q151 -216 -39 -399h-229q73 86 79 157q6 78 -65 168
z" />
    <glyph glyph-name="Egrave" unicode="&#xc8;" horiz-adv-x="997" 
d="M122 0v1382h778v-268h-459v-274h435v-260h-435v-306h459v-274h-778zM652 1454l-477 105l66 217l459 -154z" />
    <glyph glyph-name="Eacute" unicode="&#xc9;" horiz-adv-x="997" 
d="M122 0v1382h778v-268h-459v-274h435v-260h-435v-306h459v-274h-778zM353 1454l-47 168l459 154l66 -217z" />
    <glyph glyph-name="Ecircumflex" unicode="&#xca;" horiz-adv-x="997" 
d="M122 0v1382h778v-268h-459v-274h435v-260h-435v-306h459v-274h-778zM790 1454l-289 107l-275 -107l-65 152l348 176l350 -168z" />
    <glyph glyph-name="Edieresis" unicode="&#xcb;" horiz-adv-x="997" 
d="M122 0v1382h778v-268h-459v-274h435v-260h-435v-306h459v-274h-778zM838 1504q-45 -46 -110 -46q-64 0 -110 46q-45 45 -45 110q0 64 45 109q45 44 110 44t110 -44q46 -45 46 -109q0 -65 -46 -110zM394 1504q-46 -46 -110 -46q-65 0 -110 46q-46 45 -46 110q0 64 46 109
q45 44 110 44t110 -44q45 -45 45 -109q0 -65 -45 -110z" />
    <glyph glyph-name="Igrave" unicode="&#xcc;" horiz-adv-x="565" 
d="M123 0v1382h319v-1382h-319zM430 1454l-477 105l66 217l458 -154z" />
    <glyph glyph-name="Iacute" unicode="&#xcd;" horiz-adv-x="565" 
d="M123 0v1382h319v-1382h-319zM135 1454l-47 168l459 154l65 -217z" />
    <glyph glyph-name="Icircumflex" unicode="&#xce;" horiz-adv-x="565" 
d="M123 0v1382h320v-1382h-320zM564 1454l-289 107l-274 -107l-66 152l348 176l350 -168z" />
    <glyph glyph-name="Idieresis" unicode="&#xcf;" horiz-adv-x="565" 
d="M123 0v1382h320v-1382h-320zM614 1504q-45 -46 -110 -46q-64 0 -110 46q-46 45 -46 110q0 64 46 109q45 44 110 44t110 -44q46 -45 46 -109q0 -65 -46 -110zM170 1504q-46 -46 -110 -46q-65 0 -110 46q-46 45 -46 110q0 64 46 109q45 44 110 44q64 0 110 -44
q45 -45 45 -109q0 -65 -45 -110z" />
    <glyph glyph-name="Ntilde" unicode="&#xd1;" horiz-adv-x="1419" 
d="M878 0l-357 680q-74 151 -108 266q14 -239 14 -579v-367h-305v1382h420l344 -657q67 -128 119 -276q-15 207 -15 589v344h306v-1382h-418zM1111 1661q-104 -180 -274 -180q-80 0 -154 45q-73 45 -102 45q-66 0 -113 -84l-151 102q101 180 274 180q79 0 153 -45
q73 -45 103 -45q64 0 111 84z" />
    <glyph glyph-name="Ograve" unicode="&#xd2;" horiz-adv-x="1437" 
d="M1178 173q-193 -200 -484 -200q-315 0 -479 187q-158 179 -158 508q0 334 202 542q193 199 484 199q315 0 479 -187q158 -179 158 -507q0 -334 -202 -542zM721 1118q-146 0 -234 -108q-92 -113 -92 -310q0 -434 321 -434q146 0 234 108q92 112 92 308q0 436 -321 436z
M870 1454l-477 105l65 217l459 -154z" />
    <glyph glyph-name="Oacute" unicode="&#xd3;" horiz-adv-x="1437" 
d="M1178 173q-193 -200 -484 -200q-315 0 -479 187q-158 179 -158 508q0 334 202 542q193 199 484 199q315 0 479 -187q158 -179 158 -507q0 -334 -202 -542zM721 1118q-146 0 -234 -108q-92 -113 -92 -310q0 -434 321 -434q146 0 234 108q92 112 92 308q0 436 -321 436z
M592 1454l-48 168l459 154l66 -217z" />
    <glyph glyph-name="Ocircumflex" unicode="&#xd4;" horiz-adv-x="1437" 
d="M1178 173q-193 -200 -484 -200q-315 0 -479 187q-158 179 -158 508q0 334 202 542q193 199 484 199q315 0 479 -187q158 -179 158 -507q0 -334 -202 -542zM721 1118q-146 0 -234 -108q-92 -113 -92 -310q0 -434 321 -434q146 0 234 108q92 112 92 308q0 436 -321 436z
M1018 1454l-289 107l-275 -107l-65 152l348 176l350 -168z" />
    <glyph glyph-name="Otilde" unicode="&#xd5;" horiz-adv-x="1437" 
d="M1178 173q-193 -200 -484 -200q-315 0 -479 187q-158 179 -158 508q0 334 202 542q193 199 484 199q315 0 479 -187q158 -179 158 -507q0 -334 -202 -542zM721 1118q-146 0 -234 -108q-92 -113 -92 -310q0 -434 321 -434q146 0 234 108q92 112 92 308q0 436 -321 436z
M1120 1661q-104 -180 -275 -180q-80 0 -153 45t-103 45q-66 0 -112 -84l-152 102q101 180 275 180q79 0 152 -45q74 -45 104 -45q64 0 110 84z" />
    <glyph glyph-name="Odieresis" unicode="&#xd6;" horiz-adv-x="1437" 
d="M1178 173q-193 -200 -484 -200q-315 0 -479 187q-158 179 -158 508q0 334 202 542q193 199 484 199q315 0 479 -187q158 -179 158 -507q0 -334 -202 -542zM721 1118q-146 0 -234 -108q-92 -113 -92 -310q0 -434 321 -434q146 0 234 108q92 112 92 308q0 436 -321 436z
M1064 1504q-45 -46 -110 -46q-64 0 -110 46q-46 45 -46 110q0 64 46 109q45 44 110 44t110 -44q46 -45 46 -109q0 -65 -46 -110zM620 1504q-46 -46 -110 -46q-65 0 -110 46q-46 45 -46 110q0 64 46 109q45 44 110 44q64 0 110 -44q45 -45 45 -109q0 -65 -45 -110z" />
    <glyph glyph-name="Oslash" unicode="&#xd8;" horiz-adv-x="1437" 
d="M1181 172q-192 -199 -489 -199q-82 0 -178 19l-95 -203l-219 100l95 201q-238 166 -238 584q0 330 202 536q194 199 484 199q82 0 164 -16l96 204l219 -98l-92 -199q250 -165 250 -589q0 -334 -199 -539zM983 1010l-338 -748q41 -8 63 -8q142 0 236 99q110 116 110 339
q0 198 -71 318zM776 1124q-43 6 -57 6q-141 0 -233 -103q-103 -117 -103 -327q0 -166 63 -309l332 733h-2z" />
    <glyph glyph-name="OE" unicode="&#x152;" horiz-adv-x="1757" 
d="M915 0q-125 -27 -221 -27q-315 0 -479 188q-158 180 -158 513q0 329 200 536q192 199 474 199q111 0 221 -27h709v-268h-459v-274h434v-260h-434v-306h459v-274h-746zM882 1092q-76 26 -163 26q-136 0 -224 -100q-100 -114 -100 -318q0 -434 317 -434q83 0 170 35v791z
" />
    <glyph glyph-name="Scaron" unicode="&#x160;" horiz-adv-x="1028" 
d="M820 108q-155 -133 -397 -133q-185 0 -329 37l30 303q151 -61 308 -61q188 0 188 143q0 76 -86 125l-191 79q-276 114 -276 374q0 198 143 313q146 119 404 119q136 0 252 -27l-29 -278q-117 41 -238 41q-190 0 -190 -131q0 -70 88 -119l194 -84q281 -124 281 -371
q0 -200 -152 -330zM522 1454l-349 168l70 160l287 -107l276 105l64 -150z" />
    <glyph glyph-name="Ugrave" unicode="&#xd9;" horiz-adv-x="1378" 
d="M1255 543q0 -570 -586 -570q-547 0 -547 514v895h319v-876q0 -131 51 -193q58 -71 197 -71q136 0 193 63q57 65 57 219v858h316v-839zM784 1454l-478 105l66 217l459 -154z" />
    <glyph glyph-name="Uacute" unicode="&#xda;" horiz-adv-x="1378" 
d="M1255 543q0 -570 -586 -570q-547 0 -547 514v895h319v-876q0 -131 51 -193q58 -71 197 -71q136 0 193 63q57 65 57 219v858h316v-839zM634 1454l-47 168l459 154l65 -217z" />
    <glyph glyph-name="Ucircumflex" unicode="&#xdb;" horiz-adv-x="1378" 
d="M1255 543q0 -570 -586 -570q-547 0 -547 514v895h319v-876q0 -131 51 -193q58 -71 197 -71q136 0 193 63q57 65 57 219v858h316v-839zM972 1454l-289 107l-274 -107l-66 152l348 176l351 -168z" />
    <glyph glyph-name="Udieresis" unicode="&#xdc;" horiz-adv-x="1378" 
d="M1255 543q0 -570 -586 -570q-547 0 -547 514v895h319v-876q0 -131 51 -193q58 -71 197 -71q136 0 193 63q57 65 57 219v858h316v-839zM1021 1504q-46 -46 -111 -46q-64 0 -110 46q-45 45 -45 110q0 64 45 109q46 44 110 44q65 0 111 -44q45 -45 45 -109q0 -65 -45 -110z
M576 1504q-45 -46 -110 -46q-64 0 -110 46q-46 45 -46 110q0 64 46 109q45 44 110 44t110 -44q46 -45 46 -109q0 -65 -46 -110z" />
    <glyph glyph-name="Yacute" unicode="&#xdd;" horiz-adv-x="1183" 
d="M748 483v-483h-320v481l-432 901h348l158 -352q55 -123 88 -221h4q27 79 107 250l149 323h336zM518 1454l-47 168l459 154l65 -217z" />
    <glyph glyph-name="Ydieresis" unicode="&#x178;" horiz-adv-x="1183" 
d="M748 483v-483h-320v481l-432 901h348l158 -352q55 -123 88 -221h4q27 79 107 250l149 323h336zM931 1504q-45 -46 -110 -46q-64 0 -110 46q-45 45 -45 110q0 64 45 109q46 44 110 44q65 0 110 -44q46 -45 46 -109q0 -65 -46 -110zM487 1504q-46 -46 -110 -46
q-65 0 -110 46q-46 45 -46 110q0 64 46 109q45 44 110 44t110 -44q46 -45 46 -109q0 -65 -46 -110z" />
    <glyph glyph-name="Zcaron" unicode="&#x17d;" horiz-adv-x="1097" 
d="M90 0v250l444 743l74 107q-74 -4 -217 -4h-287v286h895v-260l-469 -753q-10 -14 -26 -38l-27 -40q27 4 268 4h263v-295h-918zM553 1454l-348 168l69 160l287 -107l277 105l63 -150z" />
    <glyph glyph-name="Eth" unicode="&#xd0;" horiz-adv-x="1370" 
d="M1104 184q-200 -193 -553 -194q-154 0 -408 12v582h-133v241h133v553q213 13 469 13q694 0 694 -672q0 -342 -202 -535zM885 1006q-89 116 -295 116q-97 0 -134 -4v-293h222v-241h-222v-312q58 -8 121 -8q174 0 276 105q109 112 109 325q0 210 -77 312z" />
    <glyph glyph-name="Thorn" unicode="&#xde;" horiz-adv-x="1132" 
d="M951 386q-160 -146 -421 -146q-62 0 -89 2v-242h-319v1382h319v-182q74 4 136 4q249 0 386 -115q142 -119 142 -344q0 -218 -154 -359zM534 944q-27 0 -93 -4v-434q41 -8 103 -8q103 0 165 56q66 61 66 173q0 217 -241 217z" />
    <glyph glyph-name="a" unicode="a" horiz-adv-x="1077" 
d="M667 0q0 102 8 154h-2q-81 -177 -311 -177q-141 0 -221 88q-76 82 -76 214q0 358 573 358v31q0 137 -159 137q-146 0 -310 -68l-47 238q191 69 398 69q240 0 342 -94q90 -84 90 -266v-442q0 -136 8 -242h-293zM638 438q-274 0 -274 -127q0 -96 100 -96q75 0 126 60
q48 57 48 135v28z" />
    <glyph glyph-name="b" unicode="b" horiz-adv-x="1144" 
d="M936 145q-152 -168 -419 -168q-208 0 -397 52v1466h311v-401q0 -110 -14 -203l2 -2q81 151 289 151q180 0 278 -128q95 -124 95 -349q0 -259 -145 -418zM612 780q-80 0 -131 -81q-50 -80 -50 -203v-256q43 -13 109 -13q211 0 211 305q0 248 -139 248z" />
    <glyph glyph-name="c" unicode="c" horiz-adv-x="856" 
d="M800 23q-119 -46 -272 -46q-467 0 -467 500q0 246 128 397q141 166 404 166q106 0 207 -32l-47 -271q-87 35 -162 35q-204 0 -204 -270q0 -252 204 -252q100 0 172 35z" />
    <glyph glyph-name="d" unicode="d" horiz-adv-x="1142" 
d="M735 0q0 81 10 145h-4q-96 -170 -309 -170q-181 0 -278 130q-93 125 -93 348q0 257 143 418q149 167 404 167q53 0 102 -6v463h312v-1495h-287zM710 778q-52 13 -106 13q-213 0 -213 -306q0 -249 141 -249q78 0 128 82q50 83 50 210v250z" />
    <glyph glyph-name="e" unicode="e" horiz-adv-x="1062" 
d="M981 428h-605q4 -209 252 -209q149 0 299 60l31 -234q-183 -68 -381 -68q-516 0 -516 521q0 236 131 386q137 156 367 156q218 0 331 -127q103 -115 103 -313q0 -98 -12 -172zM686 633q6 180 -144 180q-149 0 -166 -180h310z" />
    <glyph glyph-name="f" unicode="f" horiz-adv-x="731" 
d="M735 1243q-55 19 -113 19q-137 0 -137 -154v-90h209v-240h-209v-778h-311v778h-156v240h156v88q0 206 97 305q101 102 320 102q93 0 164 -16z" />
    <glyph glyph-name="g" unicode="g" horiz-adv-x="1122" 
d="M920 -382q-162 -126 -417 -126q-442 0 -442 303q0 160 147 238q-98 47 -98 157q0 139 125 189q-154 82 -154 274q0 167 116 273q126 116 347 116q80 0 179 -24h346v-246h-117q29 -32 29 -90q0 -170 -111 -265q-115 -100 -330 -100q-27 0 -61 7q-37 -19 -37 -52
q0 -31 29 -41q26 -9 116 -12l138 -6q350 -13 350 -303q0 -172 -155 -292zM532 817q-152 0 -152 -143q0 -146 154 -146q152 0 152 142q0 147 -154 147zM639 -25l-162 5q-29 0 -39 2q-72 -59 -72 -127q0 -127 182 -127q106 0 165 40q55 38 55 101q0 101 -129 106z" />
    <glyph glyph-name="h" unicode="h" horiz-adv-x="1163" 
d="M728 0v647q0 131 -94 131q-82 0 -143 -87q-60 -86 -60 -199v-492h-311v1495h311v-408q0 -124 -16 -208h2q100 161 321 161q302 0 302 -323v-717h-312z" />
    <glyph glyph-name="i" unicode="i" horiz-adv-x="555" 
d="M413 1190q-57 -53 -137 -53q-78 0 -134 53q-56 54 -56 131q0 75 56 130q56 54 134 54q80 0 137 -53q56 -54 56 -131t-56 -131zM121 0v1018h311v-1018h-311z" />
    <glyph glyph-name="j" unicode="j" horiz-adv-x="561" 
d="M417 1190q-56 -53 -134 -53q-80 0 -136 53q-57 54 -57 131q0 76 57 130q56 54 136 54q78 0 134 -53q56 -54 56 -131t-56 -131zM438 -51q0 -449 -424 -449q-75 0 -147 21l18 264q58 -23 117 -23q125 0 125 152v1104h311v-1069z" />
    <glyph glyph-name="k" unicode="k" horiz-adv-x="1110" 
d="M708 0l-277 489v-489h-311v1495h311v-887l258 410h383l-336 -467l361 -551h-389z" />
    <glyph glyph-name="l" unicode="l" horiz-adv-x="555" 
d="M120 0v1495h311v-1495h-311z" />
    <glyph glyph-name="m" unicode="m" horiz-adv-x="1757" 
d="M1322 0v637q0 141 -92 141q-74 0 -135 -82q-64 -87 -64 -207v-489h-307v639q0 139 -92 139q-77 0 -138 -83q-63 -87 -63 -206v-489h-311v1018h293q0 -79 -12 -162h2q104 184 325 184q222 0 279 -184q98 184 321 184q308 0 308 -344v-696h-314z" />
    <glyph glyph-name="n" unicode="n" horiz-adv-x="1163" 
d="M728 0v647q0 131 -94 131q-82 0 -143 -87q-60 -85 -60 -197v-494h-311v1018h291q0 -101 -12 -160l2 -2q109 184 337 184q302 0 302 -323v-717h-312z" />
    <glyph glyph-name="o" unicode="o" horiz-adv-x="1142" 
d="M930 130q-150 -153 -382 -153q-489 0 -489 508q0 247 152 402q149 153 385 153q234 0 359 -128q128 -131 128 -382q0 -244 -153 -400zM575 774q-81 0 -133 -60q-59 -68 -59 -194q0 -272 186 -272q87 0 138 68q52 70 52 196q0 262 -184 262z" />
    <glyph glyph-name="p" unicode="p" horiz-adv-x="1144" 
d="M946 144q-141 -160 -410 -160q-61 0 -105 8v-477h-311v1503h287q0 -77 -8 -146h4q90 168 307 168q179 0 276 -127q95 -124 95 -348q0 -269 -135 -421zM612 782q-80 0 -131 -82q-50 -82 -50 -211v-249q49 -13 109 -13q211 0 211 305q0 250 -139 250z" />
    <glyph glyph-name="q" unicode="q" horiz-adv-x="1144" 
d="M710 -485v415q0 113 15 207l-5 2q-82 -164 -278 -164q-379 0 -379 476q0 260 143 420q153 169 424 169q190 0 394 -32v-1493h-314zM710 780q-51 11 -106 11q-213 0 -213 -306q0 -249 139 -249q80 0 130 83t50 216v245z" />
    <glyph glyph-name="r" unicode="r" horiz-adv-x="729" 
d="M691 733q-260 60 -260 -313v-420h-311v1018h291q0 -91 -15 -180h5q95 215 305 204z" />
    <glyph glyph-name="s" unicode="s" horiz-adv-x="841" 
d="M649 71q-125 -94 -334 -94q-124 0 -226 29l17 254q94 -41 213 -41q125 0 125 80q0 48 -59 79q25 -13 -129 52q-187 80 -187 272q0 150 109 240q119 100 342 100q75 0 178 -18l-11 -244q-73 27 -176 27q-116 0 -116 -78q0 -43 59 -74q20 -11 61 -27q51 -20 70 -29
q191 -87 191 -273q0 -161 -127 -255z" />
    <glyph glyph-name="t" unicode="t" horiz-adv-x="772" 
d="M712 8q-116 -31 -231 -31q-177 0 -244 71q-67 70 -67 257v473h-154v240h154v301l313 84v-385h219v-240h-219v-401q0 -78 23 -109q23 -30 81 -30q46 0 107 14z" />
    <glyph glyph-name="u" unicode="u" horiz-adv-x="1159" 
d="M749 0q0 101 12 160l-4 2q-106 -185 -336 -185q-303 0 -303 324v717h313v-647q0 -131 95 -131q81 0 141 87q59 85 59 197v494h314v-1018h-291z" />
    <glyph glyph-name="v" unicode="v" horiz-adv-x="1062" 
d="M719 0h-377l-336 1018h334l127 -406q42 -138 71 -284h5q26 144 63 282l123 408h328z" />
    <glyph glyph-name="w" unicode="w" horiz-adv-x="1634" 
d="M1306 0h-331l-113 354q-30 106 -59 244h-2q-18 -93 -66 -256l-102 -342h-314l-309 1018h340l78 -283q71 -274 84 -332h4q23 141 76 318l88 297h288l91 -283q65 -224 86 -334h4q32 173 71 320l84 297h320z" />
    <glyph glyph-name="x" unicode="x" horiz-adv-x="1093" 
d="M696 0l-158 311l-157 -311h-371l336 516l-316 502h371l160 -305l162 305h344l-297 -502l315 -516h-389z" />
    <glyph glyph-name="y" unicode="y" horiz-adv-x="1056" 
d="M664 -39q-100 -265 -229 -370q-115 -93 -303 -93q-83 0 -158 15l35 266q68 -21 135 -21q153 0 207 166l24 76l-368 1018h344l102 -297q45 -133 82 -297h2q37 154 96 328l93 266h333z" />
    <glyph glyph-name="z" unicode="z" horiz-adv-x="925" 
d="M90 0v223l356 518q-57 -4 -184 -4h-160v281h725v-223l-346 -510q33 2 199 2h153v-287h-743z" />
    <glyph glyph-name="agrave" unicode="&#xe0;" horiz-adv-x="1077" 
d="M667 0q0 102 8 154h-2q-81 -177 -311 -177q-141 0 -221 88q-76 82 -76 214q0 358 573 358v31q0 137 -159 137q-146 0 -310 -68l-47 238q191 69 398 69q240 0 342 -94q90 -84 90 -266v-442q0 -136 8 -242h-293zM638 438q-274 0 -274 -127q0 -96 100 -96q75 0 126 60
q48 57 48 135v28zM536 1126l-305 316l194 155l273 -342z" />
    <glyph glyph-name="aacute" unicode="&#xe1;" horiz-adv-x="1077" 
d="M667 0q0 102 8 154h-2q-81 -177 -311 -177q-141 0 -221 88q-76 82 -76 214q0 358 573 358v31q0 137 -159 137q-146 0 -310 -68l-47 238q191 69 398 69q240 0 342 -94q90 -84 90 -266v-442q0 -136 8 -242h-293zM638 438q-274 0 -274 -127q0 -96 100 -96q75 0 126 60
q48 57 48 135v28zM536 1126l-160 127l273 344l194 -153z" />
    <glyph glyph-name="acircumflex" unicode="&#xe2;" horiz-adv-x="1077" 
d="M667 0q0 102 8 154h-2q-81 -177 -311 -177q-141 0 -221 88q-76 82 -76 214q0 358 573 358v31q0 137 -159 137q-146 0 -310 -68l-47 238q191 69 398 69q240 0 342 -94q90 -84 90 -266v-442q0 -136 8 -242h-293zM638 438q-274 0 -274 -127q0 -96 100 -96q75 0 126 60
q48 57 48 135v28zM770 1133l-218 161l-217 -161l-116 141l333 282l334 -282z" />
    <glyph glyph-name="atilde" unicode="&#xe3;" horiz-adv-x="1077" 
d="M667 0q0 102 8 154h-2q-81 -177 -311 -177q-141 0 -221 88q-76 82 -76 214q0 358 573 358v31q0 137 -159 137q-146 0 -310 -68l-47 238q191 69 398 69q240 0 342 -94q90 -84 90 -266v-442q0 -136 8 -242h-293zM638 438q-274 0 -274 -127q0 -96 100 -96q75 0 126 60
q48 57 48 135v28zM933 1358q-98 -197 -266 -197q-76 0 -147 49q-70 50 -99 50q-57 0 -108 -91l-146 111q98 199 265 199q76 0 147 -49q71 -50 100 -50q60 0 107 90z" />
    <glyph glyph-name="adieresis" unicode="&#xe4;" horiz-adv-x="1077" 
d="M667 0q0 102 8 154h-2q-81 -177 -311 -177q-141 0 -221 88q-76 82 -76 214q0 358 573 358v31q0 137 -159 137q-146 0 -310 -68l-47 238q191 69 398 69q240 0 342 -94q90 -84 90 -266v-442q0 -136 8 -242h-293zM638 438q-274 0 -274 -127q0 -96 100 -96q75 0 126 60
q48 57 48 135v28zM878 1206q-47 -47 -115 -47q-66 0 -114 47q-47 48 -47 115q0 66 47 114q48 48 114 48q68 0 115 -48t47 -114q0 -68 -47 -115zM450 1206q-47 -47 -115 -47q-66 0 -114 47q-47 48 -47 115q0 66 47 114q48 48 114 48q68 0 115 -48t47 -114q0 -68 -47 -115z
" />
    <glyph glyph-name="aring" unicode="&#xe5;" horiz-adv-x="1077" 
d="M667 0q0 102 8 154h-2q-81 -177 -311 -177q-141 0 -221 88q-76 82 -76 214q0 358 573 358v31q0 137 -159 137q-146 0 -310 -68l-47 238q191 69 398 69q240 0 342 -94q90 -84 90 -266v-442q0 -136 8 -242h-293zM638 438q-274 0 -274 -127q0 -96 100 -96q75 0 126 60
q48 57 48 135v28zM751 1184q-80 -76 -197 -76t-197 74q-81 76 -81 190t82 191q80 75 196 75q118 0 198 -74q81 -76 81 -190q0 -113 -82 -190zM627 1447q-30 32 -73 32q-42 0 -72 -32q-30 -31 -30 -73q0 -43 30 -74q30 -30 72 -30q43 0 73 30q30 31 30 74q0 42 -30 73z" />
    <glyph glyph-name="ae" unicode="&#xe6;" horiz-adv-x="1630" 
d="M1550 430h-604q0 -211 252 -211q151 0 297 64l30 -236q-172 -70 -381 -70q-316 0 -409 193h-2q-110 -193 -367 -193q-144 0 -225 88q-76 82 -76 214q0 360 573 360v41q0 125 -182 125q-138 0 -280 -68l-54 244q184 63 387 63q226 0 324 -108h2q103 106 285 106
q219 0 334 -136q106 -125 106 -337q0 -75 -10 -139zM1255 637q6 176 -143 176t-166 -176h309zM638 442q-278 0 -278 -131q0 -96 102 -96q76 0 128 60q48 57 48 135v32z" />
    <glyph glyph-name="ccedilla" unicode="&#xe7;" horiz-adv-x="856" 
d="M800 23q-119 -46 -272 -46q-467 0 -467 500q0 246 128 397q141 166 404 166q106 0 207 -32l-47 -271q-87 35 -162 35q-204 0 -204 -270q0 -252 204 -252q100 0 172 35zM573 -80q152 -216 -39 -399h-229q73 86 79 157q6 78 -65 168z" />
    <glyph glyph-name="egrave" unicode="&#xe8;" horiz-adv-x="1062" 
d="M981 428h-605q4 -209 252 -209q149 0 299 60l31 -234q-183 -68 -381 -68q-516 0 -516 521q0 236 131 386q137 156 367 156q218 0 331 -127q103 -115 103 -313q0 -98 -12 -172zM686 633q6 180 -144 180q-149 0 -166 -180h310zM538 1126l-305 316l195 155l272 -342z" />
    <glyph glyph-name="eacute" unicode="&#xe9;" horiz-adv-x="1062" 
d="M981 428h-605q4 -209 252 -209q149 0 299 60l31 -234q-183 -68 -381 -68q-516 0 -516 521q0 236 131 386q137 156 367 156q218 0 331 -127q103 -115 103 -313q0 -98 -12 -172zM686 633q6 180 -144 180q-149 0 -166 -180h310zM532 1126l-160 127l273 344l194 -153z" />
    <glyph glyph-name="ecircumflex" unicode="&#xea;" horiz-adv-x="1062" 
d="M981 428h-605q4 -209 252 -209q149 0 299 60l31 -234q-183 -68 -381 -68q-516 0 -516 521q0 236 131 386q137 156 367 156q218 0 331 -127q103 -115 103 -313q0 -98 -12 -172zM686 633q6 180 -144 180q-149 0 -166 -180h310zM768 1133l-218 161l-217 -161l-116 141
l333 282l334 -282z" />
    <glyph glyph-name="edieresis" unicode="&#xeb;" horiz-adv-x="1062" 
d="M981 428h-605q4 -209 252 -209q149 0 299 60l31 -234q-183 -68 -381 -68q-516 0 -516 521q0 236 131 386q137 156 367 156q218 0 331 -127q103 -115 103 -313q0 -98 -12 -172zM686 633q6 180 -144 180q-149 0 -166 -180h310zM878 1206q-47 -47 -115 -47q-66 0 -113 47
q-48 48 -48 115q0 66 48 114q47 48 113 48q68 0 115 -48t47 -114q0 -68 -47 -115zM450 1206q-47 -47 -115 -47q-66 0 -113 47q-48 48 -48 115q0 66 48 114q47 48 113 48q68 0 115 -48t47 -114q0 -68 -47 -115z" />
    <glyph glyph-name="igrave" unicode="&#xec;" horiz-adv-x="555" 
d="M121 0v1018h311v-1018h-311zM293 1126l-305 316l195 155l272 -342z" />
    <glyph glyph-name="iacute" unicode="&#xed;" horiz-adv-x="555" 
d="M120 0v1018h312v-1018h-312zM260 1126l-160 127l272 344l195 -153z" />
    <glyph glyph-name="icircumflex" unicode="&#xee;" horiz-adv-x="555" 
d="M121 0v1018h312v-1018h-312zM461 1133l-184 161l-193 -161l-104 141l297 282l297 -282z" />
    <glyph glyph-name="idieresis" unicode="&#xef;" horiz-adv-x="555" 
d="M122 0v1018h311v-1018h-311zM589 1206q-47 -47 -115 -47q-66 0 -114 47q-48 48 -48 115q0 66 48 114t114 48q69 0 115 -47q47 -47 47 -115t-47 -115zM195 1206q-47 -47 -114 -47q-68 0 -115 47q-47 46 -47 115q0 66 48 114t114 48q69 0 115 -47q47 -47 47 -115t-48 -115z
" />
    <glyph glyph-name="ntilde" unicode="&#xf1;" horiz-adv-x="1163" 
d="M728 0v647q0 131 -94 131q-82 0 -143 -87q-60 -85 -60 -197v-494h-311v1018h291q0 -101 -12 -160l2 -2q109 184 337 184q302 0 302 -323v-717h-312zM968 1358q-98 -197 -266 -197q-77 0 -147 49q-70 50 -99 50q-57 0 -109 -91l-145 111q98 199 264 199q77 0 148 -49
q71 -50 100 -50q60 0 106 90z" />
    <glyph glyph-name="ograve" unicode="&#xf2;" horiz-adv-x="1142" 
d="M930 130q-150 -153 -382 -153q-489 0 -489 508q0 247 152 402q149 153 385 153q234 0 359 -128q128 -131 128 -382q0 -244 -153 -400zM575 774q-81 0 -133 -60q-59 -68 -59 -194q0 -272 186 -272q87 0 138 68q52 70 52 196q0 262 -184 262zM563 1126l-305 316l194 155
l273 -342z" />
    <glyph glyph-name="oacute" unicode="&#xf3;" horiz-adv-x="1142" 
d="M930 130q-150 -153 -382 -153q-489 0 -489 508q0 247 152 402q149 153 385 153q234 0 359 -128q128 -131 128 -382q0 -244 -153 -400zM575 774q-81 0 -133 -60q-59 -68 -59 -194q0 -272 186 -272q87 0 138 68q52 70 52 196q0 262 -184 262zM553 1126l-160 127l272 344
l195 -153z" />
    <glyph glyph-name="ocircumflex" unicode="&#xf4;" horiz-adv-x="1142" 
d="M930 130q-150 -153 -382 -153q-489 0 -489 508q0 247 152 402q149 153 385 153q234 0 359 -128q128 -131 128 -382q0 -244 -153 -400zM575 774q-81 0 -133 -60q-59 -68 -59 -194q0 -272 186 -272q87 0 138 68q52 70 52 196q0 262 -184 262zM804 1133l-217 161l-217 -161
l-116 141l333 282l334 -282z" />
    <glyph glyph-name="otilde" unicode="&#xf5;" horiz-adv-x="1142" 
d="M930 130q-150 -153 -382 -153q-489 0 -489 508q0 247 152 402q149 153 385 153q234 0 359 -128q128 -131 128 -382q0 -244 -153 -400zM575 774q-81 0 -133 -60q-59 -68 -59 -194q0 -272 186 -272q87 0 138 68q52 70 52 196q0 262 -184 262zM974 1358q-98 -197 -266 -197
q-76 0 -146 49q-71 50 -100 50q-57 0 -108 -91l-145 111q97 199 264 199q76 0 147 -49q72 -50 101 -50q59 0 106 90z" />
    <glyph glyph-name="odieresis" unicode="&#xf6;" horiz-adv-x="1142" 
d="M930 130q-150 -153 -382 -153q-489 0 -489 508q0 247 152 402q149 153 385 153q234 0 359 -128q128 -131 128 -382q0 -244 -153 -400zM575 774q-81 0 -133 -60q-59 -68 -59 -194q0 -272 186 -272q87 0 138 68q52 70 52 196q0 262 -184 262zM915 1206q-47 -47 -115 -47
q-66 0 -114 47q-47 48 -47 115q0 66 47 114q48 48 114 48q68 0 115 -48t47 -114q0 -68 -47 -115zM487 1206q-47 -47 -115 -47q-66 0 -114 47q-47 48 -47 115q0 66 47 114q48 48 114 48q68 0 115 -48t47 -114q0 -68 -47 -115z" />
    <glyph glyph-name="oslash" unicode="&#xf8;" horiz-adv-x="1148" 
d="M940 130q-150 -153 -387 -153q-93 0 -172 19l-107 -195l-162 78l107 195q-160 126 -160 411q0 249 150 402q149 153 389 153q69 0 151 -14l98 176l162 -78l-96 -174q178 -133 178 -420q0 -246 -151 -400zM751 676l-229 -445q21 -6 51 -6q221 0 221 287q0 109 -43 164z
M610 793q-8 2 -31 2q-95 0 -155 -63q-70 -73 -70 -212q0 -99 37 -158z" />
    <glyph glyph-name="oe" unicode="&#x153;" horiz-adv-x="1742" 
d="M1665 430h-607q0 -211 252 -211q152 0 297 64l31 -236q-173 -70 -379 -70q-244 0 -371 140q-125 -140 -342 -140q-489 0 -489 508q0 249 152 403q150 152 387 152q209 0 323 -122q122 124 314 124q218 0 334 -136q106 -125 106 -337q0 -71 -8 -139zM1368 637
q6 176 -144 176q-149 0 -166 -176h310zM575 774q-81 0 -134 -60q-60 -69 -60 -194q0 -272 188 -272q86 0 137 68q53 71 53 196q0 262 -184 262z" />
    <glyph glyph-name="scaron" unicode="&#x161;" horiz-adv-x="841" 
d="M649 71q-125 -94 -334 -94q-124 0 -226 29l17 254q94 -41 213 -41q125 0 125 80q0 48 -59 79q25 -13 -129 52q-187 80 -187 272q0 150 109 240q119 100 342 100q75 0 178 -18l-11 -244q-73 27 -176 27q-116 0 -116 -78q0 -43 59 -74q20 -11 61 -27q51 -20 70 -29
q191 -87 191 -273q0 -161 -127 -255zM425 1133l-331 282l116 141l217 -161l217 161l115 -141z" />
    <glyph glyph-name="germandbls" unicode="&#xdf;" horiz-adv-x="1263" 
d="M1089 70q-120 -97 -312 -97q-140 0 -227 35l14 252q91 -47 189 -47q133 0 133 90q0 49 -53 90l-116 74q-169 109 -169 285q0 128 101 238q102 110 102 181q0 99 -129 99q-191 0 -191 -252v-1018h-311v1004q0 260 153 392q134 115 359 115q201 0 322 -83q124 -86 124 -238
q0 -142 -106 -239q-107 -98 -107 -158q0 -49 55 -92q-5 4 119 -79q173 -116 173 -290q0 -163 -123 -262z" />
    <glyph glyph-name="ugrave" unicode="&#xf9;" horiz-adv-x="1159" 
d="M749 0q0 101 12 160l-4 2q-106 -185 -336 -185q-303 0 -303 324v717h313v-647q0 -131 95 -131q81 0 141 87q59 85 59 197v494h314v-1018h-291zM552 1126l-305 316l195 155l272 -342z" />
    <glyph glyph-name="uacute" unicode="&#xfa;" horiz-adv-x="1159" 
d="M749 0q0 101 12 160l-4 2q-106 -185 -336 -185q-303 0 -303 324v717h313v-647q0 -131 95 -131q81 0 141 87q59 85 59 197v494h314v-1018h-291zM581 1126l-160 127l272 344l195 -153z" />
    <glyph glyph-name="ucircumflex" unicode="&#xfb;" horiz-adv-x="1159" 
d="M749 0q0 101 12 160l-4 2q-106 -185 -336 -185q-303 0 -303 324v717h313v-647q0 -131 95 -131q81 0 141 87q59 85 59 197v494h314v-1018h-291zM796 1133l-217 161l-217 -161l-117 141l334 282l334 -282z" />
    <glyph glyph-name="udieresis" unicode="&#xfc;" horiz-adv-x="1159" 
d="M749 0q0 101 12 160l-4 2q-106 -185 -336 -185q-303 0 -303 324v717h313v-647q0 -131 95 -131q81 0 141 87q59 85 59 197v494h314v-1018h-291zM906 1206q-47 -47 -114 -47t-114 47q-48 48 -48 115q0 66 48 114t114 48q67 0 114 -48q48 -48 48 -114q0 -68 -48 -115z
M478 1206q-47 -47 -114 -47t-114 47q-48 48 -48 115q0 66 48 114t114 48q67 0 114 -48q48 -48 48 -114q0 -68 -48 -115z" />
    <glyph glyph-name="yacute" unicode="&#xfd;" horiz-adv-x="1056" 
d="M664 -39q-100 -265 -229 -370q-115 -93 -303 -93q-83 0 -158 15l35 266q68 -21 135 -21q153 0 207 166l24 76l-368 1018h344l102 -297q45 -133 82 -297h2q37 154 96 328l93 266h333zM554 1126l-160 127l272 344l195 -153z" />
    <glyph glyph-name="ydieresis" unicode="&#xff;" horiz-adv-x="1056" 
d="M664 -39q-100 -265 -229 -370q-115 -93 -303 -93q-83 0 -158 15l35 266q68 -21 135 -21q153 0 207 166l24 76l-368 1018h344l102 -297q45 -133 82 -297h2q37 154 96 328l93 266h333zM867 1206q-47 -47 -115 -47q-66 0 -114 47q-48 48 -48 115q0 66 48 114t114 48
q67 0 115 -48q47 -48 47 -114q0 -68 -47 -115zM439 1206q-47 -47 -115 -47q-66 0 -114 47q-48 48 -48 115q0 66 48 114t114 48q67 0 115 -48q47 -48 47 -114q0 -68 -47 -115z" />
    <glyph glyph-name="zcaron" unicode="&#x17e;" horiz-adv-x="925" 
d="M90 0v223l356 518q-57 -4 -184 -4h-160v281h725v-223l-346 -510q33 2 199 2h153v-287h-743zM465 1133l-332 282l117 141l217 -161l217 161l115 -141z" />
    <glyph glyph-name="eth" unicode="&#xf0;" horiz-adv-x="1146" 
d="M925 126q-141 -149 -368 -149q-228 0 -358 124q-140 132 -140 384q0 249 146 402q140 147 354 147q89 0 127 -43q10 -20 -43 70q-34 55 -95 119l-176 -78l-123 141l156 68q-61 50 -147 106l303 127q81 -62 131 -112l168 71l123 -139l-164 -70q260 -319 260 -716
q0 -290 -154 -452zM569 774q-81 0 -131 -63q-55 -71 -55 -199q0 -264 192 -264q180 0 180 284q0 242 -186 242z" />
    <glyph glyph-name="thorn" unicode="&#xfe;" horiz-adv-x="1144" 
d="M946 144q-141 -160 -410 -160q-61 0 -105 8v-477h-311v1980h311v-397q0 -133 -8 -197l4 -2q85 141 283 141q179 0 276 -127q95 -124 95 -348q0 -269 -135 -421zM612 782q-80 0 -131 -82q-50 -82 -50 -211v-249q49 -13 109 -13q211 0 211 305q0 250 -139 250z" />
    <glyph glyph-name="ampersand" unicode="&#x26;" horiz-adv-x="1634" 
d="M1360 -53q-189 131 -275 196q-229 -170 -524 -170q-237 0 -363 126q-112 111 -112 288q0 221 242 412q-164 196 -164 358q0 151 113 250q120 106 323 106q186 0 289 -85q100 -83 100 -230q0 -204 -237 -393q149 -139 319 -266v-2q117 190 111 415h311q3 -329 -184 -585
q159 -116 258 -183zM580 1282q-47 0 -77 -30q-30 -31 -30 -78q0 -83 94 -191q115 98 115 195q0 104 -102 104zM514 610q-104 -95 -104 -186q0 -74 53 -126q57 -56 149 -56q128 0 242 73q-183 146 -340 295z" />
    <glyph glyph-name="grave" unicode="`" horiz-adv-x="772" 
d="M442 1126l-305 316l195 155l272 -342z" />
    <glyph glyph-name="acute" unicode="&#xb4;" horiz-adv-x="811" 
d="M375 1126l-160 127l272 344l195 -153z" />
    <glyph glyph-name="circumflex" unicode="&#x2c6;" horiz-adv-x="864" 
d="M647 1133l-217 161l-217 -161l-117 141l334 282l334 -282z" />
    <glyph glyph-name="tilde" unicode="&#x2dc;" horiz-adv-x="913" 
d="M845 1358q-98 -197 -266 -197q-77 0 -147 49q-70 50 -99 50q-57 0 -109 -91l-145 111q98 199 264 199q77 0 148 -49q71 -50 100 -50q60 0 106 90z" />
    <glyph glyph-name="dieresis" unicode="&#xa8;" horiz-adv-x="1118" 
d="M868 1206q-48 -47 -115 -47t-114 47q-48 48 -48 115q0 66 48 114t114 48q67 0 115 -48q47 -48 47 -114q0 -68 -47 -115zM439 1206q-47 -47 -114 -47t-114 47q-48 48 -48 115q0 66 48 114t114 48q67 0 114 -48q48 -48 48 -114q0 -68 -48 -115z" />
    <glyph glyph-name="macron" unicode="&#xaf;" horiz-adv-x="808" 
d="M116 1204v226h575v-226h-575z" />
    <glyph glyph-name="cedilla" unicode="&#xb8;" horiz-adv-x="819" 
d="M519 -80q152 -216 -39 -399h-229q74 86 79 157q6 78 -65 168z" />
    <glyph glyph-name="asciicircum" unicode="^" 
d="M796 682l-250 481l-239 -481l-207 106l334 594h235l349 -589z" />
    <glyph glyph-name="asciitilde" unicode="~" 
d="M1056 1161q0 -157 -89 -251q-90 -95 -243 -95q-135 0 -223 104q-89 103 -121 103q-78 0 -78 -156h-233v49q0 158 89 252q90 95 243 95q136 0 224 -104q89 -103 122 -103q78 0 78 153h231v-47z" />
    <glyph glyph-name="brokenbar" unicode="&#xa6;" horiz-adv-x="593" 
d="M167 809v754h248v-754h-248zM167 -485v774h248v-774h-248z" />
    <glyph glyph-name="backslash" unicode="\" horiz-adv-x="1032" 
d="M725 -330l-717 1880h311l717 -1880h-311z" />
    <glyph glyph-name="underscore" unicode="_" 
d="M0 -500v252h1126v-252h-1126z" />
    <glyph glyph-name="quotesingle" unicode="'" horiz-adv-x="464" 
d="M349 889h-233l-39 553h309z" />
    <glyph glyph-name="quotedbl" unicode="&#x22;" horiz-adv-x="880" 
d="M765 889h-233l-39 553h309zM349 889h-233l-39 553h309z" />
    <glyph glyph-name="copyright" unicode="&#xa9;" horiz-adv-x="1566" 
d="M1283 181q-208 -208 -501 -208q-296 0 -503 207q-206 207 -206 502q0 293 208 501q207 208 501 208q295 0 501 -207q207 -207 207 -502q0 -293 -207 -501zM1119 1019q-140 140 -337 140t-337 -139q-141 -140 -141 -338q0 -197 141 -338q140 -141 337 -141q198 0 337 140
q140 141 140 339q0 197 -140 337zM988 365q-90 -46 -213 -46q-150 0 -240 96q-91 96 -91 261q0 162 88 262q96 111 272 111q98 0 174 -35l-37 -201q-39 33 -116 33q-127 0 -127 -166q0 -148 116 -148q74 0 131 29z" />
    <glyph glyph-name="trademark" unicode="&#x2122;" horiz-adv-x="1398" 
d="M1119 807l-30 213l-11 88l-14 -84l-51 -217h-195l-51 223l-14 78l-4 -74l-31 -227h-205l94 575h252l56 -208l14 -78l12 73l51 213h256l99 -575h-228zM384 1194v-387h-215v387h-131v188h471v-188h-125z" />
    <glyph glyph-name="registered" unicode="&#xae;" horiz-adv-x="1157" 
d="M928 742q-145 -142 -351 -142q-209 0 -353 141q-145 142 -145 349q0 204 146 346q145 141 352 141q208 0 352 -141q145 -141 145 -346q0 -206 -146 -348zM800 1311q-93 94 -223 94q-131 0 -223 -92q-93 -93 -93 -223q0 -131 93 -224q92 -94 223 -94q130 0 223 93
q92 92 92 222q0 131 -92 224zM614 866l-58 160h-18v-160h-137v449h206q164 0 164 -129q0 -93 -78 -127q14 -14 27 -49l57 -144h-163zM564 1210h-26v-90h20q58 0 58 47q0 43 -52 43z" />
    <glyph glyph-name="at" unicode="@" horiz-adv-x="1976" 
d="M1655 414q-137 -148 -370 -148q-207 0 -210 180h-9q-100 -180 -274 -180q-213 0 -213 307q0 240 118 385q129 158 371 158q140 0 250 -47l-65 -387q-17 -96 -2 -135t69 -39q201 0 201 334q0 181 -105 291q-122 129 -364 129q-262 0 -435 -180q-179 -186 -179 -480
q0 -510 548 -510q171 0 365 64l47 -240q-215 -78 -450 -78q-386 0 -593 200q-200 192 -200 535q0 406 264 674q260 264 647 264q351 0 548 -188q186 -177 186 -467q0 -285 -145 -442zM1062 901q-25 10 -69 10q-80 0 -133 -99q-48 -89 -48 -194q0 -114 52 -114q121 0 184 319
z" />
    <glyph glyph-name="ordfeminine" unicode="&#xaa;" horiz-adv-x="845" 
d="M497 641q0 53 8 96h-2q-55 -116 -207 -116q-227 0 -227 210q0 142 124 214q108 63 288 63v27q0 77 -111 77q-112 0 -229 -55l-25 201q131 47 295 47q313 0 313 -244l-2 -348q0 -53 4 -172h-229zM92 311v242h669v-242h-669zM481 954q-183 0 -183 -88q0 -57 66 -57
q53 0 87 42q30 37 30 83v20z" />
    <glyph glyph-name="ordmasculine" unicode="&#xba;" horiz-adv-x="880" 
d="M698 731q-110 -108 -281 -108q-352 0 -352 385q0 183 115 294q108 105 274 105q356 0 356 -385q0 -180 -112 -291zM94 311v242h688v-242h-688zM438 1194q-127 0 -127 -178q0 -180 123 -180q131 0 131 182q0 176 -127 176z" />
    <glyph glyph-name="currency" unicode="&#xa4;" 
d="M829 80l-152 205q-64 -23 -135 -23q-46 0 -94 10l-139 -190l-244 172l133 168q-61 97 -61 244q0 146 71 245l-143 185l242 170l143 -193q61 19 133 19q62 0 111 -15l137 191l240 -174l-134 -172q52 -90 52 -232q0 -135 -70 -241l152 -195zM563 866q-65 0 -109 -47
q-49 -52 -49 -143q0 -189 156 -189q159 0 159 197q0 182 -157 182z" />
    <glyph glyph-name="Euro" unicode="&#x20ac;" horiz-adv-x="1212" 
d="M1159 76q-163 -103 -379 -103q-539 0 -613 465h-143v180h129v23q0 41 4 115h-133v180h156q114 473 624 473q193 0 336 -72l-67 -252q-120 62 -265 62q-221 0 -278 -211h358v-180h-389v-62q0 -53 2 -76h387v-180h-364q53 -205 295 -205q131 0 258 80z" />
    <glyph glyph-name="dollar" unicode="$" horiz-adv-x="1017" 
d="M845 140q-91 -108 -246 -148v-240h-221v223q-124 3 -242 25l21 279q120 -41 254 -41q192 0 192 122q0 63 -82 105q28 -14 -180 73q-262 109 -262 355q0 137 87 240q88 102 230 135v198h220v-182q117 -3 206 -24l-22 -263q-119 33 -225 33q-170 0 -170 -108q0 -57 83 -99
q27 -14 84 -36q71 -27 98 -39q265 -115 265 -359q0 -142 -90 -249z" />
    <glyph glyph-name="cent" unicode="&#xa2;" horiz-adv-x="925" 
d="M833 100q-73 -27 -162 -37v-202h-234v205q-177 25 -271 156q-89 124 -89 323q0 193 94 329q97 139 266 179v190h234v-174q90 -7 160 -31l-29 -260q-81 39 -174 39q-104 0 -165 -66q-62 -68 -62 -188q0 -237 219 -237q98 0 190 43z" />
    <glyph glyph-name="sterling" unicode="&#xa3;" horiz-adv-x="983" 
d="M84 0v217q165 106 165 268q0 66 -6 103h-184v239h158q-21 139 -21 189q0 393 436 393q136 0 238 -29l-53 -256q-83 29 -158 29q-145 0 -145 -143q0 -43 16 -183h254v-239h-225q2 -16 2 -74q0 -155 -117 -256q69 14 227 14h267v-272h-854z" />
    <glyph glyph-name="florin" unicode="&#x192;" horiz-adv-x="946" 
d="M515 227q-32 -315 -149 -447q-111 -124 -336 -124q-85 0 -152 20l45 269q80 -27 123 -27q71 0 104 53q34 53 47 191l46 477h-215v242h237l19 163q48 476 458 476q76 0 150 -19l-35 -256q-52 17 -117 17q-129 0 -147 -199l-17 -182h273v-242h-293z" />
    <glyph glyph-name="yen" unicode="&#xa5;" horiz-adv-x="1243" 
d="M851 657h230v-192h-303v-105h303v-196h-303v-164h-316v164h-305v196h305v105h-305v192h229l-362 725h346l158 -323q43 -89 92 -223h4q32 102 111 249l149 297h336z" />
    <glyph glyph-name="numbersign" unicode="#" horiz-adv-x="1200" 
d="M983 817l-27 -246h148v-221h-170l-37 -350h-248l37 350h-242l-37 -350h-247l36 350h-145v221h168l27 246h-148v221h170l37 344h248l-37 -344h242l34 344h248l-37 -344h148v-221h-168zM493 817l-26 -246h241l27 246h-242z" />
    <glyph glyph-name="zero" unicode="0" horiz-adv-x="1210" 
d="M983 159q-156 -179 -396 -179q-530 0 -530 694q0 349 170 547q156 180 395 180q533 0 533 -694q0 -350 -172 -548zM768 1034q-49 105 -158 105q-219 0 -219 -447q0 -237 51 -344q49 -104 158 -104q219 0 219 446q0 238 -51 344z" />
    <glyph glyph-name="one" unicode="1" horiz-adv-x="745" 
d="M294 0v1055l-221 -86l-45 297l346 116h244v-1382h-324z" />
    <glyph glyph-name="two" unicode="2" horiz-adv-x="1017" 
d="M88 0v266l174 191q299 321 299 495q0 162 -172 162q-129 0 -244 -74l-49 283q168 82 381 82q212 0 327 -117q105 -106 105 -280q0 -275 -319 -617l-84 -94l2 -2q155 8 436 8v-303h-856z" />
    <glyph glyph-name="three" unicode="3" horiz-adv-x="946" 
d="M718 104q-161 -127 -417 -127q-136 0 -236 29l31 270q80 -28 209 -28q110 0 174 48q63 47 63 124q0 164 -252 164q-75 0 -153 -13v250q368 -10 368 178q0 140 -172 140q-107 0 -217 -54l-26 258q146 62 331 62q197 0 308 -95q106 -91 106 -243q0 -228 -213 -303l-4 -6
q123 -30 194 -119q68 -86 68 -201q0 -206 -162 -334z" />
    <glyph glyph-name="four" unicode="4" horiz-adv-x="1148" 
d="M921 291v-291h-307v291h-557l-23 250l469 841h418v-807h192v-284h-192zM620 1100h-2l-291 -533q69 2 293 2v531z" />
    <glyph glyph-name="five" unicode="5" horiz-adv-x="940" 
d="M712 115q-168 -133 -438 -133q-106 0 -205 20l31 277q73 -23 188 -23q125 0 195 54q67 52 67 139q0 176 -295 176q-92 0 -143 -11v768h713v-297l-418 2v-215q223 0 348 -102q127 -105 127 -295q0 -224 -170 -360z" />
    <glyph glyph-name="six" unicode="6" horiz-adv-x="1185" 
d="M973 111q-149 -138 -389 -138q-237 0 -368 166q-128 162 -128 443q0 389 208 610q196 209 515 209q128 0 184 -10v-279q-90 21 -184 21q-289 0 -373 -267l-16 -61h2q113 88 274 88q198 0 313 -114q113 -111 113 -298q0 -231 -151 -370zM612 633q-83 0 -135 -53
q-49 -51 -49 -125q0 -211 178 -211q89 0 140 55q49 53 49 139q0 195 -183 195z" />
    <glyph glyph-name="seven" unicode="7" horiz-adv-x="944" 
d="M900 1114q-226 -514 -340 -1114h-348q117 584 336 1081q-258 -6 -508 -6v307h860v-268z" />
    <glyph glyph-name="eight" unicode="8" horiz-adv-x="1148" 
d="M920 76q-147 -103 -372 -103q-223 0 -352 102q-129 100 -129 273q0 200 229 344q-204 118 -204 312q0 186 144 300q140 109 359 109q205 0 332 -100q125 -99 125 -250q0 -180 -215 -332q244 -136 244 -344q0 -199 -161 -311zM573 1161q-164 0 -164 -129q0 -89 174 -178
q148 91 148 182q0 125 -158 125zM548 567q-155 -97 -155 -190q0 -67 49 -106q49 -40 133 -40q79 0 129 38q51 39 51 100q0 101 -207 198z" />
    <glyph glyph-name="nine" unicode="9" horiz-adv-x="1189" 
d="M924 205q-191 -225 -562 -225q-109 0 -195 14v280q89 -28 217 -28q255 0 330 217q15 27 29 98h-2q-80 -90 -256 -90q-193 0 -304 115q-112 116 -112 315q0 220 147 363q148 143 377 143q248 0 382 -165q128 -158 128 -437q0 -388 -179 -600zM577 1137q-83 0 -133 -55
q-49 -54 -49 -142q0 -195 178 -195q78 0 131 59q49 53 49 118q0 215 -176 215z" />
    <glyph glyph-name="uni00B9" unicode="&#xb9;" horiz-adv-x="632" 
d="M223 727v639l-160 -55l-45 227l246 86h258v-897h-299z" />
    <glyph glyph-name="uni00B2" unicode="&#xb2;" horiz-adv-x="782" 
d="M65 727v207l121 123q194 194 194 272q0 84 -104 84q-83 0 -168 -37l-35 217q127 47 283 47q336 0 336 -251q0 -166 -168 -355l-76 -80q72 4 264 4v-231h-647z" />
    <glyph glyph-name="uni00B3" unicode="&#xb3;" horiz-adv-x="770" 
d="M579 790q-111 -81 -307 -81q-123 0 -225 24l31 187q61 -21 166 -21q153 0 153 98q0 54 -72 79q-79 27 -215 9v179q267 0 267 114q0 76 -111 76q-108 0 -180 -35l-27 180q116 41 277 41q327 0 327 -225q0 -137 -118 -198q145 -50 145 -205q0 -141 -111 -222z" />
    <glyph glyph-name="onequarter" unicode="&#xbc;" horiz-adv-x="1777" 
d="M237 -322l-188 132l1351 1855l187 -133zM1603 -59v-177h-262v177h-405l-17 194l281 527h403v-502h121v-219h-121zM223 727v639l-160 -55l-45 227l246 86h258v-897h-299zM1337 498l-174 -342h174v342z" />
    <glyph glyph-name="onehalf" unicode="&#xbd;" horiz-adv-x="1777" 
d="M237 -322l-188 132l1351 1855l187 -133zM223 727v639l-160 -55l-45 227l246 86h258v-897h-299zM1054 -236v207l119 123q195 195 195 273q0 84 -103 84q-85 0 -170 -37l-35 217q127 47 283 47q336 0 336 -252q0 -168 -166 -354l-78 -80q74 4 266 4v-232h-647z" />
    <glyph glyph-name="threequarters" unicode="&#xbe;" horiz-adv-x="1812" 
d="M272 -322l-188 132l1352 1855l186 -133zM1636 -59v-177h-260v177h-405l-17 194l281 527h401v-502h123v-219h-123zM579 790q-111 -81 -307 -81q-123 0 -225 24l31 187q61 -21 166 -21q153 0 153 98q0 54 -72 79q-79 27 -215 9v179q267 0 267 114q0 76 -111 76
q-108 0 -180 -35l-27 180q116 41 277 41q327 0 327 -225q0 -137 -118 -198q145 -50 145 -205q0 -141 -111 -222zM1372 498l-174 -342h174v342z" />
    <glyph glyph-name="plus" unicode="+" 
d="M710 479v-362h-297v362h-338v262h338v359h297v-359h340v-262h-340z" />
    <glyph glyph-name="plusminus" unicode="&#xb1;" 
d="M712 723v-356h-299v356h-338v258h338v356h299v-356h338v-258h-338zM85 0v260h955v-260h-955z" />
    <glyph glyph-name="multiply" unicode="&#xd7;" 
d="M849 129l-299 299l-295 -299l-172 172l297 297l-297 297l193 192l296 -296l297 296l172 -172l-299 -294l299 -299z" />
    <glyph glyph-name="divide" unicode="&#xf7;" 
d="M691 890q-54 -54 -129 -54q-76 0 -130 54t-54 130t54 130t130 54q75 0 129 -54q54 -55 54 -130q0 -76 -54 -130zM75 479v262h975v-262h-975zM691 69q-54 -55 -129 -55q-76 0 -130 55q-54 54 -54 130t54 130t130 54t129 -54q54 -54 54 -130t-54 -130z" />
    <glyph glyph-name="equal" unicode="=" 
d="M106 692v250h913v-250h-913zM106 274v250h913v-250h-913z" />
    <glyph glyph-name="logicalnot" unicode="&#xac;" 
d="M732 184v295h-657v262h936v-557h-279z" />
    <glyph glyph-name="less" unicode="&#x3c;" 
d="M775 -6l-657 618l653 619l207 -207l-459 -410l461 -407z" />
    <glyph glyph-name="greater" unicode="&#x3e;" 
d="M354 -6l-207 207l459 409l-461 410l205 211l657 -619z" />
    <glyph glyph-name="percent" unicode="%" horiz-adv-x="1570" 
d="M1400 68q-94 -95 -231 -95q-149 0 -232 89q-82 86 -82 237q0 149 97 245q94 93 233 93q142 0 225 -78q88 -84 88 -240q0 -152 -98 -251zM362 -49l-195 141l1032 1335l195 -139zM616 842q-94 -94 -232 -94q-149 0 -232 87q-81 86 -81 238q0 148 96 243q94 93 232 93
q144 0 226 -77q89 -83 89 -240q0 -152 -98 -250zM1179 444q-94 0 -94 -137q0 -141 94 -141q92 0 92 139t-92 139zM395 1219q-95 0 -95 -138q0 -141 95 -141q90 0 90 139q0 140 -90 140z" />
    <glyph glyph-name="perthousand" unicode="&#x2030;" horiz-adv-x="2189" 
d="M590 843q-90 -91 -220 -91q-138 0 -217 83q-80 85 -80 236t94 246q89 90 219 90q133 0 212 -74q87 -82 87 -239q0 -154 -95 -251zM382 1217q-90 0 -90 -138q0 -137 86 -137q88 0 88 139q0 136 -84 136zM309 -45l-183 141l1051 1329l184 -143zM1325 66q-90 -93 -220 -93
q-137 0 -217 85q-80 86 -80 237q0 150 94 245q89 91 220 91q132 0 211 -75q88 -82 88 -239q0 -154 -96 -251zM1117 440q-90 0 -90 -137t86 -137q88 0 88 139q0 135 -84 135zM2009 66q-90 -93 -220 -93q-137 0 -217 85q-80 86 -80 237q0 150 94 245q89 91 220 91
q132 0 211 -75q88 -82 88 -239q0 -154 -96 -251zM1802 440q-91 0 -91 -137t86 -137q88 0 88 139q0 135 -83 135z" />
    <glyph glyph-name="degree" unicode="&#xb0;" horiz-adv-x="811" 
d="M620 996q-95 -78 -234 -78q-147 0 -231 80q-84 81 -84 223q0 138 105 225q96 80 227 80q162 0 247 -89q74 -79 74 -210q0 -145 -104 -231zM401 1333q-103 0 -103 -110q0 -111 101 -111q98 0 98 115q0 106 -96 106z" />
    <glyph glyph-name="mu" unicode="&#xb5;" horiz-adv-x="1187" 
d="M1146 -6q-62 -17 -121 -17q-234 0 -250 177l-2 2q-78 -170 -266 -170q-65 0 -104 32l36 -503h-319v1503h311v-651q0 -127 97 -127q88 0 144 80q56 81 56 210v488h312v-641q0 -85 21 -112t85 -27v-244z" />
    <glyph glyph-name="uni00A0" unicode="&#xa0;" horiz-adv-x="400" 
 />
    <glyph glyph-name="uni00AD" unicode="&#xad;" horiz-adv-x="690" 
d="M86 430v250h516v-250h-516z" />
  </font>
</defs>
</svg>
